<svg xmlns="http://www.w3.org/2000/svg" viewBox="0 0 314.72 82.95"><defs><style>.cls-1{fill:#fff;}</style></defs><title>Logo - Branco</title><g id="Camada_2" data-name="Camada 2"><g id="Logo"><path class="cls-1" d="M117.1,60.62a21.45,21.45,0,0,1,0-37.11,21.07,21.07,0,0,1,10.77-2.86,19.48,19.48,0,0,1,2.66.18,1.14,1.14,0,0,1,1,1.41l-.95,5.14a1.06,1.06,0,0,1-1.18.94l-1.53-.06a13.43,13.43,0,0,0-6.9,1.86,13.79,13.79,0,0,0-5,5,13.75,13.75,0,0,0,0,13.81,13.72,13.72,0,0,0,5,5,13.43,13.43,0,0,0,6.9,1.86,12.14,12.14,0,0,0,7.55-2.45,14.22,14.22,0,0,0,4.78-6.52h-7.61a1.12,1.12,0,0,1-.83-.35,1.16,1.16,0,0,1-.35-.83v-4.3a1.2,1.2,0,0,1,1.18-1.18h12.57a4.23,4.23,0,0,1,2.18.47,1.52,1.52,0,0,1,.77,1.36,22.67,22.67,0,0,1-2.6,10.79,19.87,19.87,0,0,1-7.23,7.76,19.37,19.37,0,0,1-10.41,2.86A21.07,21.07,0,0,1,117.1,60.62Zm43.07-4.36A21.11,21.11,0,0,1,155.89,49l-.11-.3a20.65,20.65,0,0,1-1.07-6.6,21.81,21.81,0,0,1,1.24-7.2,20.06,20.06,0,0,1,3.72-6.43,27.39,27.39,0,0,1,6.58-5.34A19.35,19.35,0,0,1,174.66,21h.17a20.8,20.8,0,0,1,9.68,1.76,21.16,21.16,0,0,1,5.69,3.81,17.61,17.61,0,0,1,4,5A20.81,20.81,0,0,1,197,42a21.46,21.46,0,0,1-1,6.46,21.15,21.15,0,0,1-3,5.87A22.3,22.3,0,0,1,189.79,58a22.05,22.05,0,0,1-4.28,2.92,20.88,20.88,0,0,1-25.34-4.63ZM185.87,51a13.48,13.48,0,0,0,2.3-3.49A13.83,13.83,0,0,0,189.35,42a13.46,13.46,0,0,0-2.13-7.29,12.87,12.87,0,0,0-5.84-5,13.87,13.87,0,0,0-5.6-1.18,13.45,13.45,0,0,0-5,.94,13.13,13.13,0,0,0-4.28,2.77l-1,1.07a13.92,13.92,0,0,0-2.39,4.18,13.81,13.81,0,0,0,.44,10.3,12.45,12.45,0,0,0,3.6,4.63A13.61,13.61,0,0,0,182,54.16,14.77,14.77,0,0,0,185.87,51Zm24,10a18.29,18.29,0,0,1-6.7-3.24,1.23,1.23,0,0,1-.35-.89,3.37,3.37,0,0,1,.47-1.47A26,26,0,0,1,204.86,53a1.22,1.22,0,0,1,1-.59,1.93,1.93,0,0,1,.53.12,24.38,24.38,0,0,0,12.74,3.24,9.28,9.28,0,0,0,4.75-1A3.09,3.09,0,0,0,225.63,52a5,5,0,0,0-1.24-3,5.58,5.58,0,0,0-2.45-1.68,40.7,40.7,0,0,0-4.21-1.39c-.2,0-.71-.18-1.54-.41a24.27,24.27,0,0,1-7.43-3.39,9.42,9.42,0,0,1-3.54-5,12.46,12.46,0,0,1-.65-3.78,10.08,10.08,0,0,1,1.59-5.51,12.35,12.35,0,0,1,4.6-4.16,18.59,18.59,0,0,1,7.08-2.07c.36,0,.91-.05,1.66-.05a23.66,23.66,0,0,1,8.79,1.71q4.59,2.3,4.07,3.89A9.88,9.88,0,0,1,231,29.35c-.69.89-1.13,1.47-1.33,1.74a.6.6,0,0,1-.53.24,5.52,5.52,0,0,1-2-.71A14,14,0,0,0,224,29.5a22,22,0,0,0-4.43-.59,12.13,12.13,0,0,0-3.83.65,6.91,6.91,0,0,0-2.36,1.8,3.43,3.43,0,0,0-.83,2.15,3.55,3.55,0,0,0,1.66,2.89,20,20,0,0,0,3.92,2.19c1.39.59,3,1.2,4.69,1.83q2.83,1,4.57,1.91a8.17,8.17,0,0,1,2.86,2.27,8.55,8.55,0,0,1,2,3.19,11,11,0,0,1,.8,4,9.45,9.45,0,0,1-1.77,5.73,11.44,11.44,0,0,1-4.9,3.74,18.2,18.2,0,0,1-7.2,1.33A31,31,0,0,1,209.85,61.06Zm40.41-.64a21.33,21.33,0,0,1,0-36.67,20.11,20.11,0,0,1,10.48-2.86,20.63,20.63,0,0,1,8.43,1.77,20.16,20.16,0,0,1,7,5.07,1.1,1.1,0,0,1,.35.77,1.16,1.16,0,0,1-.41.76c-.83.67-1.66,1.37-2.48,2.1l-1.71,1.5a1.13,1.13,0,0,1-.83.36,1.09,1.09,0,0,1-.77-.36,12.85,12.85,0,0,0-9.55-4.24,12.5,12.5,0,0,0-6.58,1.82,13.53,13.53,0,0,0-4.81,4.9,13.66,13.66,0,0,0,0,13.45,13.45,13.45,0,0,0,4.81,4.9,12.51,12.51,0,0,0,6.58,1.83,12.33,12.33,0,0,0,4.89-1,13.34,13.34,0,0,0,4.25-2.9,2.06,2.06,0,0,1,1.3-.47,1.25,1.25,0,0,1,.94.36c.4.31.95.77,1.66,1.38s1.31,1.15,1.82,1.63a1.58,1.58,0,0,1,.65,1.29,1.12,1.12,0,0,1-.35.83,20.74,20.74,0,0,1-25.64,3.78Zm35.08,2.06a.79.79,0,0,1-.24-.59V22.18a.81.81,0,0,1,.24-.59.82.82,0,0,1,.59-.23h6.19a.76.76,0,0,1,.59.26.84.84,0,0,1,.24.56v15.4a1.4,1.4,0,0,0,1.36,1.36h11.21a1.27,1.27,0,0,0,.91-.38,1.54,1.54,0,0,0,.44-1V22.18a.84.84,0,0,1,.24-.56.77.77,0,0,1,.59-.26h6.19a.8.8,0,0,1,.83.82V61.89a.79.79,0,0,1-.24.59.78.78,0,0,1-.59.24H307.7a.75.75,0,0,1-.59-.27.83.83,0,0,1-.24-.56V48.2a1.54,1.54,0,0,0-.44-1,1.23,1.23,0,0,0-.91-.38H294.31a1.29,1.29,0,0,0-.92.35,1.46,1.46,0,0,0-.44.94V61.89a.83.83,0,0,1-.24.56.74.74,0,0,1-.59.27h-6.19A.79.79,0,0,1,285.34,62.48ZM80.64,42.6c0-.37,0-.74,0-1.12,0-.1,0-.18,0-.27V5.47A1.57,1.57,0,0,0,79,3.87H67a1.45,1.45,0,0,0-1.14.51,1.62,1.62,0,0,0-.46,1.09V35.29a3,3,0,0,1-.86,1.89,2.42,2.42,0,0,1-1.77.74H50.62a2.36,2.36,0,0,0-2.29,2.29v8.34a2.36,2.36,0,0,0,2.29,2.29H65.36A27.69,27.69,0,0,1,56.1,63.47a23.6,23.6,0,0,1-14.62,4.74,26.06,26.06,0,0,1-13.37-3.6,26.69,26.69,0,0,1-9.77-9.77,26.61,26.61,0,0,1,0-26.73,26.69,26.69,0,0,1,9.77-9.77,26.06,26.06,0,0,1,13.37-3.6l3,.11A2.07,2.07,0,0,0,46.73,13l1.83-9.95A2.21,2.21,0,0,0,46.62.34,37.82,37.82,0,0,0,41.48,0,41.28,41.28,0,0,0,0,41.48,41.28,41.28,0,0,0,20.62,77.41,40.73,40.73,0,0,0,41.48,83a37.53,37.53,0,0,0,20.16-5.54,38.46,38.46,0,0,0,14-15,43.55,43.55,0,0,0,5-19.46h0Z"/></g></g></svg>